<svg viewBox="0 0 1064 249" fill="none" xmlns="http://www.w3.org/2000/svg">
<path d="M540.243 73.7386C508.653 73.7386 493.169 90.7951 486.032 98.537C474.385 83.5888 460.456 73.8423 435.882 73.8423C417.581 73.8423 394.822 84.5393 388.774 98.6926V76.2789H343.445V245.703H389.88V149.689C389.88 131.354 404.672 116.475 422.956 116.475C441.239 116.475 456.032 131.319 456.032 149.689V245.738H502.328L502.38 149.655C502.38 131.319 517.173 116.44 535.456 116.44C553.74 116.44 568.532 131.285 568.532 149.655L568.48 245.703H614.915V154.13C614.915 120.519 602.369 73.7386 540.243 73.7386Z" fill="white"/>
<path d="M662.939 61.7282C679.978 61.7282 693.803 47.9206 693.803 30.8641C693.803 13.8076 679.996 0 662.939 0C645.883 0 632.075 13.8076 632.075 30.8641C632.075 47.9206 645.883 61.7282 662.939 61.7282Z" fill="white"/>
<path d="M686.2 76.2789H638.659V245.703H686.2V76.2789Z" fill="white"/>
<path d="M47.5404 15.9505H0V245.824H47.5404V15.9505Z" fill="white"/>
<path d="M977.128 248.503C952.381 248.503 931.471 241.089 914.95 224.344C898.464 207.633 890.1 186.463 890.1 161.475C890.1 136.486 898.464 115.3 914.95 98.537C931.454 81.757 952.381 73.7386 977.128 73.7386C1001.87 73.7386 1022.8 81.7225 1039.25 98.537C1055.69 115.317 1064 136.486 1064 161.475C1064 186.463 1055.65 207.633 1039.22 224.344C1022.77 241.089 1001.87 248.503 977.128 248.503ZM977.128 117.08C965.238 117.08 955.751 121.21 948.13 129.678C940.353 138.335 936.552 148.704 936.552 161.44C936.552 174.177 940.336 184.511 948.113 193.117C955.716 201.567 965.238 205.628 977.128 205.628C989.017 205.628 998.539 201.55 1006.14 193.117C1013.92 184.528 1017.7 174.159 1017.7 161.44C1017.7 148.721 1013.9 138.318 1006.13 129.678C998.522 121.21 989.034 117.08 977.128 117.08Z" fill="white"/>
<path d="M274.528 76.279V90.7606C266.354 82.6039 258.025 73.6004 234.194 73.6004C218.883 73.6004 204.989 76.711 192.927 83.9345C179.931 91.6419 169.39 102.477 161.544 116.06C153.681 129.695 149.689 144.92 149.689 161.319C149.689 177.719 153.612 192.858 161.371 206.337C169.113 219.799 179.603 230.513 192.598 238.238C205.093 245.651 219.35 248.347 234.989 248.347C249.782 248.347 264.799 240.657 274.545 231.187V245.669H319.822V76.279H274.511H274.528ZM238.687 207.927C214.165 207.927 194.292 187.034 194.292 161.268C194.292 135.501 214.182 114.609 238.687 114.609C263.192 114.609 283.1 135.501 283.1 161.268C283.1 187.034 263.209 207.927 238.687 207.927Z" fill="white"/>
<path d="M808.308 73.7387C786.309 73.7387 765.935 85.7145 755.601 102.114V76.2618H709.805V245.686H756.707V149.084C756.707 130.749 770.998 115.87 791.735 115.87C812.473 115.87 826.764 130.715 826.764 149.084V245.686H873.665V144.401C873.665 118.618 862.64 73.7214 808.291 73.7214L808.308 73.7387Z" fill="white"/>
<path d="M161.181 242.956C137.368 226.538 121.279 196.003 121.279 161.008C121.279 126.014 137.368 95.4783 161.181 79.0613V76.2963H95.3055C79.8908 100.179 70.6799 129.384 70.6799 161.008C70.6799 192.633 79.8735 221.821 95.3055 245.721H161.181V242.956Z" fill="white"/>
</svg>
